<svg id="Layer_1" data-name="Layer 1" xmlns="http://www.w3.org/2000/svg" viewBox="0 0 384.81 156.05"><defs><style>.cls-1{fill:#231f20;}</style></defs><title>Cantilevers</title><path class="cls-1" d="M127.84,370.27a1.41,1.41,0,0,1-1.29-.72,10.93,10.93,0,0,0-9-4.5,10.73,10.73,0,0,0-5.76,1.63A12.07,12.07,0,0,0,106.11,377a12,12,0,0,0,1.54,6,11.66,11.66,0,0,0,4.17,4.34,11.47,11.47,0,0,0,10.89.43,10.11,10.11,0,0,0,3.5-2.95,2,2,0,0,1,1.63-1.06,2.23,2.23,0,0,1,.77.2l3.31,1.34a1.93,1.93,0,0,1,.72.53,1.15,1.15,0,0,1,.29.76,1.59,1.59,0,0,1-.29.87,16.92,16.92,0,0,1-6.16,5.59,18.33,18.33,0,0,1-8.9,2.13A18,18,0,0,1,99.4,377a17.77,17.77,0,0,1,2.44-9.19,18.21,18.21,0,0,1,6.62-6.57,17.91,17.91,0,0,1,9.12-2.42,18.1,18.1,0,0,1,9,2.21,16,16,0,0,1,6,5.56,1.79,1.79,0,0,1,.29.91,1.25,1.25,0,0,1-1,1.25l-3.41,1.39A1.58,1.58,0,0,1,127.84,370.27Z" transform="translate(-99.4 -261.1)"/><path class="cls-1" d="M142.71,394.5H138.2a1.35,1.35,0,0,1-.84-.24.77.77,0,0,1-.31-.62,2.46,2.46,0,0,1,.19-.68l16.6-32.86c.26-.51.56-.76.91-.76s.66.25.92.76L172.26,393a2.14,2.14,0,0,1,.19.68.74.74,0,0,1-.31.62,1.35,1.35,0,0,1-.84.24h-4.51a1.66,1.66,0,0,1-1.53-1L163,389H146.45l-2.2,4.56A1.55,1.55,0,0,1,142.71,394.5Zm7-11.37h10l-5-11Z" transform="translate(-99.4 -261.1)"/><path class="cls-1" d="M180,359.86c0-.35.15-.52.43-.52s.56.22,1,.67l22.36,20.82V360.68a1.33,1.33,0,0,1,.33-1,1.3,1.3,0,0,1,1-.33h4.13a1.16,1.16,0,0,1,1.29,1.29V394c0,.35-.14.53-.43.53s-.51-.21-1-.63L186.7,373.44V393.2a1.18,1.18,0,0,1-1.29,1.3h-4.08a1.18,1.18,0,0,1-1.3-1.3Z" transform="translate(-99.4 -261.1)"/><path class="cls-1" d="M245.17,359.72a1.3,1.3,0,0,1,.34,1V364a1.17,1.17,0,0,1-1.29,1.29h-8.73V393.2a1.3,1.3,0,0,1-.34,1,1.28,1.28,0,0,1-1,.34h-4.13a1.17,1.17,0,0,1-1.29-1.3V365.33H220a1.3,1.3,0,0,1-1-.33,1.33,1.33,0,0,1-.33-1v-3.36a1.33,1.33,0,0,1,.33-1,1.3,1.3,0,0,1,1-.33h24.23A1.29,1.29,0,0,1,245.17,359.72Z" transform="translate(-99.4 -261.1)"/><path class="cls-1" d="M262.49,359.72a1.3,1.3,0,0,1,.34,1V393.2a1.18,1.18,0,0,1-1.3,1.3h-4.12a1.18,1.18,0,0,1-1.3-1.3V360.68a1.17,1.17,0,0,1,1.3-1.29h4.12A1.3,1.3,0,0,1,262.49,359.72Z" transform="translate(-99.4 -261.1)"/><path class="cls-1" d="M301.68,388.55a1.18,1.18,0,0,1,1.3,1.3v3.35a1.18,1.18,0,0,1-1.3,1.3H279a1.17,1.17,0,0,1-1.29-1.3V360.68a1.16,1.16,0,0,1,1.29-1.29h4.13a1.16,1.16,0,0,1,1.29,1.29v27.87Z" transform="translate(-99.4 -261.1)"/><path class="cls-1" d="M336.51,365a1.33,1.33,0,0,1-1,.33H317.7v8.78h15.69a1.28,1.28,0,0,1,1,.34,1.3,1.3,0,0,1,.34,1v3.36a1.3,1.3,0,0,1-.34,1,1.28,1.28,0,0,1-1,.34H317.7v8.49h17.85a1.17,1.17,0,0,1,1.29,1.3v3.35a1.17,1.17,0,0,1-1.29,1.3H312.33a1.17,1.17,0,0,1-1.29-1.3V360.68a1.16,1.16,0,0,1,1.29-1.29h23.22a1.16,1.16,0,0,1,1.29,1.29V364A1.33,1.33,0,0,1,336.51,365Z" transform="translate(-99.4 -261.1)"/><path class="cls-1" d="M370.81,359.39h4.7a1.28,1.28,0,0,1,.81.23.86.86,0,0,1,.29.68,2,2,0,0,1-.14.62l-15.31,32.81a1.59,1.59,0,0,1-.38.6.76.76,0,0,1-1,0,1.59,1.59,0,0,1-.38-.6l-15.26-32.81a2,2,0,0,1-.14-.62.86.86,0,0,1,.29-.68,1.28,1.28,0,0,1,.81-.23h4.66a1.51,1.51,0,0,1,1.48.95l9,19.43,9-19.43A1.52,1.52,0,0,1,370.81,359.39Z" transform="translate(-99.4 -261.1)"/><path class="cls-1" d="M408.65,365a1.3,1.3,0,0,1-1,.33H389.85v8.78h15.69a1.17,1.17,0,0,1,1.29,1.3v3.36a1.17,1.17,0,0,1-1.29,1.29H389.85v8.49h17.84a1.18,1.18,0,0,1,1.3,1.3v3.35a1.18,1.18,0,0,1-1.3,1.3H384.48a1.18,1.18,0,0,1-1.3-1.3V360.68a1.17,1.17,0,0,1,1.3-1.29h23.21a1.17,1.17,0,0,1,1.3,1.29V364A1.3,1.3,0,0,1,408.65,365Z" transform="translate(-99.4 -261.1)"/><path class="cls-1" d="M427.41,393.2a1.18,1.18,0,0,1-1.3,1.3H422a1.18,1.18,0,0,1-1.3-1.3V360.68a1.17,1.17,0,0,1,1.3-1.29h14.63a12.64,12.64,0,0,1,6.28,1.53,10.94,10.94,0,0,1,4.27,4.29,12.71,12.71,0,0,1,1.54,6.26,13,13,0,0,1-2,7.17,9,9,0,0,1-5.28,4.06l7.63,10.22a1.42,1.42,0,0,1,.29.76.7.7,0,0,1-.29.6,1.28,1.28,0,0,1-.81.22h-5a1.82,1.82,0,0,1-1.58-.82l-7.58-10.36h-6.67Zm7.67-15.73c2.6,0,4.41-.57,5.45-1.7a6.2,6.2,0,0,0,1.56-4.34,5.89,5.89,0,0,0-1.73-4.42q-1.73-1.68-5.28-1.68h-7.67v12.14Z" transform="translate(-99.4 -261.1)"/><path class="cls-1" d="M459.69,385.43a2,2,0,0,1,1,.29,34.64,34.64,0,0,0,5,2.28,14.9,14.9,0,0,0,5.08,1,8.78,8.78,0,0,0,5.11-1.17,3.6,3.6,0,0,0,1.61-3,3.26,3.26,0,0,0-1-2.5,6.71,6.71,0,0,0-2.66-1.43,43.59,43.59,0,0,0-4.27-1,55.53,55.53,0,0,1-6.26-1.49,12,12,0,0,1-4.87-3,8.11,8.11,0,0,1-2.26-6.1,9.15,9.15,0,0,1,2-6.09,11.12,11.12,0,0,1,5-3.36,19.88,19.88,0,0,1,6.33-1,20.87,20.87,0,0,1,6.55.93,20.32,20.32,0,0,1,5.2,2.62,1.52,1.52,0,0,1,.72,1.34,1.48,1.48,0,0,1-.29.91l-1.87,2.54a1.48,1.48,0,0,1-1.34.68,1.72,1.72,0,0,1-1-.29,17.17,17.17,0,0,0-8.73-2.5,9.58,9.58,0,0,0-4.13.84,2.82,2.82,0,0,0-1.77,2.71,3,3,0,0,0,1.17,2.43,8.38,8.38,0,0,0,2.76,1.41c1.06.32,2.46.66,4.22,1l1.11.19a36.57,36.57,0,0,1,5.8,1.53,10.8,10.8,0,0,1,4.37,3.12,9,9,0,0,1,1.91,6.1c0,3.51-1.19,6.18-3.59,8s-5.65,2.73-9.74,2.73a22.36,22.36,0,0,1-7.63-1.15,25.43,25.43,0,0,1-5.95-3.12,1.72,1.72,0,0,1-.76-1.44,2.21,2.21,0,0,1,.33-1.1l1.44-2.16A1.54,1.54,0,0,1,459.69,385.43Z" transform="translate(-99.4 -261.1)"/><path class="cls-1" d="M164.53,409.08a.45.45,0,0,1-.42-.24,3.54,3.54,0,0,0-1.24-1.06,3.46,3.46,0,0,0-1.67-.4,3.5,3.5,0,0,0-1.87.53,3.76,3.76,0,0,0-1.35,1.42,3.87,3.87,0,0,0-.5,1.92,3.93,3.93,0,0,0,.5,1.95,3.81,3.81,0,0,0,1.35,1.41,3.71,3.71,0,0,0,3.53.14,3.39,3.39,0,0,0,1.14-1,.64.64,0,0,1,.53-.34.79.79,0,0,1,.25.06l1.07.44a.66.66,0,0,1,.23.17.33.33,0,0,1,.1.25.48.48,0,0,1-.1.28,5.4,5.4,0,0,1-2,1.81,6.17,6.17,0,0,1-5.84-.09,5.88,5.88,0,0,1-2.94-5.12,5.72,5.72,0,0,1,.8-3,5.93,5.93,0,0,1,2.14-2.14,5.85,5.85,0,0,1,3-.78,5.91,5.91,0,0,1,2.93.71,5.23,5.23,0,0,1,1.94,1.81.57.57,0,0,1,.09.29.4.4,0,0,1-.31.41l-1.1.45A.63.63,0,0,1,164.53,409.08Z" transform="translate(-99.4 -261.1)"/><path class="cls-1" d="M173.38,416.37a5.62,5.62,0,0,1-2.08-2.14,6.19,6.19,0,0,1-.74-3,6.12,6.12,0,0,1,.74-3,5.62,5.62,0,0,1,2.08-2.14,5.91,5.91,0,0,1,3.08-.79,6,6,0,0,1,3.09.79,5.48,5.48,0,0,1,2.08,2.14,6,6,0,0,1,.74,3,6.08,6.08,0,0,1-.74,3,5.48,5.48,0,0,1-2.08,2.14,6.06,6.06,0,0,1-3.09.78A6,6,0,0,1,173.38,416.37Zm1.21-8.5a3.78,3.78,0,0,0-1.36,1.39,4.17,4.17,0,0,0,0,4,3.66,3.66,0,0,0,1.36,1.4,3.7,3.7,0,0,0,3.75,0,3.66,3.66,0,0,0,1.36-1.4,4.25,4.25,0,0,0,0-4,3.78,3.78,0,0,0-1.36-1.39,3.77,3.77,0,0,0-3.75,0Z" transform="translate(-99.4 -261.1)"/><path class="cls-1" d="M194.88,415a.42.42,0,0,1,.31.11.45.45,0,0,1,.11.31v1.09a.42.42,0,0,1-.11.31.38.38,0,0,1-.31.11h-7.36a.39.39,0,0,1-.31-.11.42.42,0,0,1-.11-.31V406a.46.46,0,0,1,.11-.32.43.43,0,0,1,.31-.1h1.34a.41.41,0,0,1,.31.1.46.46,0,0,1,.11.32v9Z" transform="translate(-99.4 -261.1)"/><path class="cls-1" d="M201.62,416.37a5.55,5.55,0,0,1-2.08-2.14,6.19,6.19,0,0,1-.74-3,6.12,6.12,0,0,1,.74-3,5.55,5.55,0,0,1,2.08-2.14,5.91,5.91,0,0,1,3.08-.79,6,6,0,0,1,3.09.79,5.55,5.55,0,0,1,2.08,2.14,6.12,6.12,0,0,1,.74,3,6.19,6.19,0,0,1-.74,3,5.55,5.55,0,0,1-2.08,2.14,6.06,6.06,0,0,1-3.09.78A6,6,0,0,1,201.62,416.37Zm1.21-8.5a3.78,3.78,0,0,0-1.36,1.39,4.1,4.1,0,0,0,0,4,3.66,3.66,0,0,0,1.36,1.4,3.67,3.67,0,0,0,5.1-1.4,4.17,4.17,0,0,0,0-4,3.68,3.68,0,0,0-1.35-1.39,3.77,3.77,0,0,0-3.75,0Z" transform="translate(-99.4 -261.1)"/><path class="cls-1" d="M217.81,416.51a.38.38,0,0,1-.42.42h-1.32a.39.39,0,0,1-.31-.11.42.42,0,0,1-.11-.31V406a.46.46,0,0,1,.11-.32.43.43,0,0,1,.31-.1h4.75a4.09,4.09,0,0,1,2,.49,3.6,3.6,0,0,1,1.39,1.4,4.1,4.1,0,0,1,.5,2,4.17,4.17,0,0,1-.66,2.32,2.92,2.92,0,0,1-1.71,1.32l2.48,3.31a.48.48,0,0,1,.09.25.22.22,0,0,1-.09.19.45.45,0,0,1-.27.07H223a.6.6,0,0,1-.52-.26L220,413.31h-2.17Zm2.49-5.1a2.33,2.33,0,0,0,1.77-.55,2,2,0,0,0,.5-1.41A1.88,1.88,0,0,0,222,408a2.37,2.37,0,0,0-1.71-.55h-2.49v3.94Z" transform="translate(-99.4 -261.1)"/><path class="cls-1" d="M230.66,416.93H229.2a.45.45,0,0,1-.27-.07.25.25,0,0,1-.1-.21.69.69,0,0,1,.06-.21l5.38-10.66c.09-.17.18-.25.3-.25s.21.08.29.25l5.39,10.66a.69.69,0,0,1,.06.21.25.25,0,0,1-.1.21.45.45,0,0,1-.27.07h-1.47a.53.53,0,0,1-.49-.31l-.74-1.48h-5.36l-.72,1.48A.5.5,0,0,1,230.66,416.93Zm2.27-3.68h3.26l-1.62-3.57Z" transform="translate(-99.4 -261.1)"/><path class="cls-1" d="M244.74,416.82a.42.42,0,0,1-.11-.31V406a.46.46,0,0,1,.11-.32.45.45,0,0,1,.31-.1h4.08a6.47,6.47,0,0,1,3.09.69,4.69,4.69,0,0,1,1.95,2,6.45,6.45,0,0,1,.67,3,6.7,6.7,0,0,1-.65,3,4.61,4.61,0,0,1-1.94,2,6.54,6.54,0,0,1-3.12.69h-4.08A.41.41,0,0,1,244.74,416.82Zm4.39-1.85c2.34,0,3.52-1.24,3.52-3.72a3.58,3.58,0,0,0-1-2.94,3.89,3.89,0,0,0-2.51-.8h-2.32V415Z" transform="translate(-99.4 -261.1)"/><path class="cls-1" d="M261.9,416.37a5.53,5.53,0,0,1-2.07-2.14,6.08,6.08,0,0,1-.74-3,6,6,0,0,1,.74-3,5.53,5.53,0,0,1,2.07-2.14,6.42,6.42,0,0,1,6.17,0,5.58,5.58,0,0,1,2.09,2.14,6.12,6.12,0,0,1,.74,3,6.19,6.19,0,0,1-.74,3,5.58,5.58,0,0,1-2.09,2.14,6.49,6.49,0,0,1-6.17,0Zm1.22-8.5a3.81,3.81,0,0,0-1.37,1.39,4.17,4.17,0,0,0,0,4,3.69,3.69,0,0,0,1.37,1.4,3.57,3.57,0,0,0,1.86.51,3.62,3.62,0,0,0,1.89-.51,3.57,3.57,0,0,0,1.35-1.4,4.17,4.17,0,0,0,0-4,3.68,3.68,0,0,0-1.35-1.39,3.61,3.61,0,0,0-1.89-.5A3.56,3.56,0,0,0,263.12,407.87Z" transform="translate(-99.4 -261.1)"/><path class="cls-1" d="M291,405.65a.42.42,0,0,1,.11.32v1.08a.37.37,0,0,1-.42.42h-2.83v9a.38.38,0,0,1-.42.42h-1.34a.41.41,0,0,1-.31-.11.42.42,0,0,1-.11-.31v-9H282.8a.37.37,0,0,1-.42-.42V406a.37.37,0,0,1,.42-.42h7.85A.41.41,0,0,1,291,405.65Z" transform="translate(-99.4 -261.1)"/><path class="cls-1" d="M304.17,407.37a.41.41,0,0,1-.31.1h-5.79v2.85h5.09a.42.42,0,0,1,.31.11.39.39,0,0,1,.11.31v1.09a.38.38,0,0,1-.11.31.42.42,0,0,1-.31.11h-5.09V415h5.79a.42.42,0,0,1,.31.11.41.41,0,0,1,.11.31v1.09a.38.38,0,0,1-.42.42h-7.53a.39.39,0,0,1-.31-.11.42.42,0,0,1-.11-.31V406a.46.46,0,0,1,.11-.32.43.43,0,0,1,.31-.1h7.53a.37.37,0,0,1,.42.42v1.08A.42.42,0,0,1,304.17,407.37Z" transform="translate(-99.4 -261.1)"/><path class="cls-1" d="M317.63,409.08a.45.45,0,0,1-.42-.24,3.58,3.58,0,0,0-2.91-1.46,3.53,3.53,0,0,0-1.87.53,3.76,3.76,0,0,0-1.35,1.42,3.87,3.87,0,0,0-.5,1.92,3.93,3.93,0,0,0,.5,1.95,3.81,3.81,0,0,0,1.35,1.41,3.52,3.52,0,0,0,1.87.52,3.58,3.58,0,0,0,1.67-.38,3.45,3.45,0,0,0,1.13-1,.65.65,0,0,1,.53-.34.74.74,0,0,1,.25.06L319,414a.7.7,0,0,1,.24.17.37.37,0,0,1,.09.25.54.54,0,0,1-.09.28,5.56,5.56,0,0,1-2,1.81,6,6,0,0,1-2.89.69,5.87,5.87,0,0,1-5.9-5.9,5.72,5.72,0,0,1,.8-3,5.93,5.93,0,0,1,2.14-2.14,5.85,5.85,0,0,1,3-.78,5.91,5.91,0,0,1,2.93.71,5.23,5.23,0,0,1,1.94,1.81.57.57,0,0,1,.09.29.4.4,0,0,1-.31.41l-1.1.45A.59.59,0,0,1,317.63,409.08Z" transform="translate(-99.4 -261.1)"/><path class="cls-1" d="M332.15,405.65a.41.41,0,0,1,.31-.1h1.32a.43.43,0,0,1,.31.1.46.46,0,0,1,.11.32v10.54a.42.42,0,0,1-.11.31.39.39,0,0,1-.31.11h-1.32a.38.38,0,0,1-.42-.42v-4.12H326.4v4.12a.37.37,0,0,1-.42.42h-1.32a.39.39,0,0,1-.31-.11.42.42,0,0,1-.11-.31V406a.46.46,0,0,1,.11-.32.43.43,0,0,1,.31-.1H326a.36.36,0,0,1,.42.42v4.49H332V406A.42.42,0,0,1,332.15,405.65Z" transform="translate(-99.4 -261.1)"/><path class="cls-1" d="M355.93,409.08a.47.47,0,0,1-.42-.24,3.59,3.59,0,0,0-4.77-.93,3.79,3.79,0,0,0-1.36,1.42,3.86,3.86,0,0,0-.49,1.92,3.92,3.92,0,0,0,.49,1.95,3.83,3.83,0,0,0,1.36,1.41,3.48,3.48,0,0,0,1.86.52,3.55,3.55,0,0,0,1.67-.38,3.35,3.35,0,0,0,1.13-1,.66.66,0,0,1,.53-.34.69.69,0,0,1,.25.06l1.08.44a.66.66,0,0,1,.23.17.37.37,0,0,1,.09.25.54.54,0,0,1-.09.28,5.56,5.56,0,0,1-2,1.81,6,6,0,0,1-2.89.69,5.85,5.85,0,0,1-5.89-5.9,5.72,5.72,0,0,1,.79-3,6,6,0,0,1,2.15-2.14,5.81,5.81,0,0,1,3-.78,6,6,0,0,1,2.94.71,5.2,5.2,0,0,1,1.93,1.81.51.51,0,0,1,.1.29.41.41,0,0,1-.31.41l-1.11.45A.54.54,0,0,1,355.93,409.08Z" transform="translate(-99.4 -261.1)"/><path class="cls-1" d="M370.81,407.37a.46.46,0,0,1-.32.1h-5.78v2.85h5.08a.46.46,0,0,1,.32.11.43.43,0,0,1,.1.31v1.09a.41.41,0,0,1-.1.31.46.46,0,0,1-.32.11h-5.08V415h5.78a.46.46,0,0,1,.32.11.45.45,0,0,1,.1.31v1.09a.37.37,0,0,1-.42.42H363a.38.38,0,0,1-.43-.42V406a.37.37,0,0,1,.43-.42h7.52a.36.36,0,0,1,.42.42v1.08A.46.46,0,0,1,370.81,407.37Z" transform="translate(-99.4 -261.1)"/><path class="cls-1" d="M377.22,405.7c0-.11,0-.17.14-.17s.18.07.32.22l7.25,6.75V406a.46.46,0,0,1,.11-.32.43.43,0,0,1,.31-.1h1.34a.41.41,0,0,1,.31.1.46.46,0,0,1,.11.32v10.81c0,.11-.05.17-.14.17a.65.65,0,0,1-.31-.2l-7.28-6.65v6.41a.42.42,0,0,1-.11.31.39.39,0,0,1-.31.11h-1.32a.37.37,0,0,1-.42-.42Z" transform="translate(-99.4 -261.1)"/><path class="cls-1" d="M401.14,405.65a.42.42,0,0,1,.11.32v1.08a.37.37,0,0,1-.42.42H398v9a.42.42,0,0,1-.11.31.38.38,0,0,1-.31.11h-1.34a.39.39,0,0,1-.31-.11.42.42,0,0,1-.11-.31v-9H393a.36.36,0,0,1-.42-.42V406a.36.36,0,0,1,.42-.42h7.85A.41.41,0,0,1,401.14,405.65Z" transform="translate(-99.4 -261.1)"/><path class="cls-1" d="M415,407.37a.41.41,0,0,1-.31.1h-5.78v2.85H414a.42.42,0,0,1,.31.11.39.39,0,0,1,.11.31v1.09a.38.38,0,0,1-.11.31.42.42,0,0,1-.31.11h-5.08V415h5.78a.42.42,0,0,1,.31.11.41.41,0,0,1,.11.31v1.09a.38.38,0,0,1-.42.42h-7.53a.39.39,0,0,1-.31-.11.42.42,0,0,1-.11-.31V406a.46.46,0,0,1,.11-.32.43.43,0,0,1,.31-.1h7.53a.37.37,0,0,1,.42.42v1.08A.42.42,0,0,1,415,407.37Z" transform="translate(-99.4 -261.1)"/><path class="cls-1" d="M423.55,416.51a.42.42,0,0,1-.11.31.41.41,0,0,1-.31.11H421.8a.39.39,0,0,1-.31-.11.42.42,0,0,1-.11-.31V406a.46.46,0,0,1,.11-.32.43.43,0,0,1,.31-.1h4.75a4.11,4.11,0,0,1,2,.49,3.57,3.57,0,0,1,1.38,1.4,4.1,4.1,0,0,1,.5,2,4.24,4.24,0,0,1-.65,2.32,3,3,0,0,1-1.72,1.32l2.48,3.31a.48.48,0,0,1,.09.25.22.22,0,0,1-.09.19.41.41,0,0,1-.27.07h-1.63a.57.57,0,0,1-.51-.26l-2.46-3.36h-2.16Zm2.49-5.1a2.3,2.3,0,0,0,1.76-.55,2,2,0,0,0,.51-1.41,1.91,1.91,0,0,0-.56-1.43,2.4,2.4,0,0,0-1.71-.55h-2.49v3.94Z" transform="translate(-99.4 -261.1)"/><polygon class="cls-1" points="110.38 33.7 127.05 33.7 152.59 20.7 152.59 64.11 128.81 69.35 110.66 84.13 159.99 74.19 159.99 4.57 110.38 33.7"/><path class="cls-1" d="M209.52,296.71h17.34l.13,32.17-17.34,13.71S209.52,296.31,209.52,296.71Z" transform="translate(-99.4 -261.1)"/><polyline class="cls-1" points="169.39 0 169.39 73.52 294.65 86.28 294.65 41.13 169.93 0.4"/></svg>